<svg xmlns="http://www.w3.org/2000/svg" viewBox="0 0 440 925" fill="none">
  <rect width="440" height="925" rx="56" fill="#0B1F33"/>
  <rect x="20" y="20" width="400" height="885" rx="42" fill="#102741"/>
  <rect x="90" y="38" width="260" height="24" rx="12" fill="#091725"/>
  <rect x="44" y="86" width="352" height="96" rx="22" fill="#142F4D"/>
  <text x="68" y="138" fill="#F5F7FA" font-family="Arial" font-size="28" font-weight="700">Gebietssuche</text>
  <rect x="44" y="204" width="352" height="464" rx="24" fill="#0E2A45"/>
  <rect x="74" y="242" width="292" height="148" rx="18" stroke="#48E0D2" stroke-width="4" stroke-dasharray="12 10"/>
  <text x="102" y="318" fill="#7DE4D9" font-family="Arial" font-size="20" font-weight="700">Neues Suchgebiet</text>
  <circle cx="114" cy="470" r="18" fill="#48E0D2"/>
  <circle cx="206" cy="520" r="18" fill="#48E0D2"/>
  <circle cx="286" cy="444" r="18" fill="#48E0D2"/>
  <circle cx="330" cy="560" r="18" fill="#48E0D2"/>
  <rect x="74" y="606" width="292" height="44" rx="22" fill="#0B1F33"/>
  <text x="125" y="635" fill="#F5F7FA" font-family="Arial" font-size="18">lastFetchCenter: 801 m</text>
  <rect x="44" y="694" width="352" height="188" rx="24" fill="#142F4D"/>
  <text x="68" y="742" fill="#A8B4C0" font-family="Arial" font-size="16">Top Treffer</text>
  <text x="68" y="784" fill="#F5F7FA" font-family="Arial" font-size="21" font-weight="700">Aral · 1.549</text>
  <text x="68" y="826" fill="#F5F7FA" font-family="Arial" font-size="21" font-weight="700">Shell · 1.559</text>
  <text x="68" y="868" fill="#F5F7FA" font-family="Arial" font-size="21" font-weight="700">JET · 1.569</text>
</svg>
