<svg xmlns="http://www.w3.org/2000/svg" viewBox="0 0 440 925" fill="none">
  <rect width="440" height="925" rx="56" fill="#0B1F33"/>
  <rect x="20" y="20" width="400" height="885" rx="42" fill="#102741"/>
  <rect x="90" y="38" width="260" height="24" rx="12" fill="#091725"/>
  <rect x="44" y="86" width="352" height="166" rx="24" fill="#142F4D"/>
  <text x="68" y="132" fill="#F5F7FA" font-family="Arial" font-size="30" font-weight="700">FuelNow Plus</text>
  <text x="68" y="170" fill="#A8B4C0" font-family="Arial" font-size="16">Mehr Fokus. Mehr Kontrolle. Weniger Ablenkung.</text>
  <rect x="68" y="194" width="184" height="36" rx="18" fill="#48E0D2"/>
  <text x="90" y="218" fill="#0B1F33" font-family="Arial" font-size="16" font-weight="700">3 Tage kostenlos</text>
  <rect x="44" y="276" width="352" height="606" rx="24" fill="#0E2A45"/>
  <rect x="68" y="312" width="304" height="84" rx="18" fill="#12385B"/>
  <text x="88" y="352" fill="#F5F7FA" font-family="Arial" font-size="21" font-weight="700">Kraftstofftyp</text>
  <text x="88" y="378" fill="#7DE4D9" font-family="Arial" font-size="16">Super E10</text>
  <rect x="68" y="422" width="304" height="84" rx="18" fill="#12385B"/>
  <text x="88" y="462" fill="#F5F7FA" font-family="Arial" font-size="21" font-weight="700">Darstellung</text>
  <text x="88" y="488" fill="#7DE4D9" font-family="Arial" font-size="16">Preisformat 1,58y</text>
  <rect x="68" y="532" width="304" height="84" rx="18" fill="#12385B"/>
  <text x="88" y="572" fill="#F5F7FA" font-family="Arial" font-size="21" font-weight="700">Benachrichtigungen</text>
  <text x="88" y="598" fill="#7DE4D9" font-family="Arial" font-size="16">Preisalarm aktiv</text>
  <rect x="68" y="656" width="304" height="188" rx="24" fill="#0B1F33" stroke="#48E0D2"/>
  <text x="88" y="704" fill="#F5F7FA" font-family="Arial" font-size="20" font-weight="700">Warum Plus?</text>
  <text x="88" y="736" fill="#A8B4C0" font-family="Arial" font-size="15">Schneller vergleichen</text>
  <text x="88" y="764" fill="#A8B4C0" font-family="Arial" font-size="15">Mehr Fokus auf den besten Preis</text>
  <text x="88" y="792" fill="#A8B4C0" font-family="Arial" font-size="15">Premium Experience auf jedem Screen</text>
</svg>
